<svg enable-background="new 0 0 32 32" height="512" viewBox="0 0 32 32" width="512" xmlns="http://www.w3.org/2000/svg"><g id="Layer_1"><g><g fill="rgb(0,0,0)"><path d="m29.8611 29h-27.7222c-.629 0-1.1389-.5099-1.1389-1.1389v-3.7221c0-.6291.5099-1.139 1.1389-1.139h27.7221c.6291 0 1.139.5099 1.139 1.1389v3.7221c0 .6291-.5099 1.139-1.1389 1.139z"/><path d="m29.8611 19h-27.7222c-.629 0-1.1389-.5099-1.1389-1.1389v-3.7221c0-.6291.5099-1.139 1.1389-1.139h27.7221c.6291 0 1.139.5099 1.139 1.1389v3.7221c0 .6291-.5099 1.139-1.1389 1.139z"/><path d="m29.8611 9h-27.7222c-.629 0-1.1389-.5099-1.1389-1.1389v-3.7222c0-.629.5099-1.1389 1.1389-1.1389h27.7221c.6291 0 1.139.5099 1.139 1.1389v3.7221c0 .6291-.5099 1.139-1.1389 1.139z"/></g></g></g></svg>